<?xml version="1.0" standalone="no"?><!DOCTYPE svg PUBLIC "-//W3C//DTD SVG 1.1//EN" "http://www.w3.org/Graphics/SVG/1.1/DTD/svg11.dtd"><svg t="1670556767404" class="icon" viewBox="0 0 1024 1024" version="1.1" xmlns="http://www.w3.org/2000/svg" p-id="2607" xmlns:xlink="http://www.w3.org/1999/xlink" width="200" height="200"><path d="M742.4 353.09c-4.1 0-8.19-1.56-11.31-4.69-117.56-117.56-308.14-118.36-424.79-1.73-6.25 6.25-16.37 6.25-22.62 0s-6.25-16.37 0-22.62c129.13-129.13 339.99-128.29 470.03 1.73 6.25 6.25 6.25 16.37 0 22.62-3.12 3.13-7.2 4.69-11.31 4.69z" fill="#d81e06" p-id="2608"></path><path d="M815.27 280.23c-4.1 0-8.19-1.56-11.31-4.69-158.08-158.06-414.27-159.08-571.06-2.27-6.25 6.25-16.37 6.25-22.62 0s-6.25-16.37 0-22.62c169.27-169.31 445.74-168.24 616.3 2.27 6.25 6.25 6.25 16.37 0 22.62a15.922 15.922 0 0 1-11.31 4.69zM327.42 775.63c-39.14 0-70.99-31.83-70.99-70.97v-84.09c0-39.14 31.85-70.99 70.99-70.99s70.97 31.85 70.97 70.99c0 8.83-7.17 16-16 16s-16-7.17-16-16c0-21.5-17.48-38.99-38.97-38.99s-38.99 17.5-38.99 38.99v84.09c0 21.5 17.5 38.97 38.99 38.97s38.97-17.48 38.97-38.97c0-8.83 7.17-16 16-16s16 7.17 16 16c0 39.14-31.83 70.97-70.97 70.97zM502.06 775.63c-39.14 0-70.97-31.83-70.97-70.97v-84.09c0-39.14 31.83-70.99 70.97-70.99s70.99 31.85 70.99 70.99v84.09c0 39.14-31.85 70.97-70.99 70.97z m0-194.05c-21.5 0-38.97 17.5-38.97 38.99v84.09c0 21.5 17.48 38.97 38.97 38.97 21.5 0 38.99-17.48 38.99-38.97v-84.09c0.01-21.5-17.49-38.99-38.99-38.99z" fill="#d81e06" p-id="2609"></path><path d="M665.37 775.38c-8.83 0-16-7.17-16-16V564.33c0-8.83 7.17-16 16-16s16 7.17 16 16v195.05c0 8.83-7.17 16-16 16zM750.9 775.38c-8.83 0-16-7.17-16-16V564.33c0-8.83 7.17-16 16-16s16 7.17 16 16v195.05c0 8.83-7.17 16-16 16z" fill="#d81e06" p-id="2610"></path><path d="M794.62 899.65H229.38c-55.87 0-101.32-45.45-101.32-101.32V544.87c0-55.87 45.45-101.32 101.32-101.32h190.14l88.82-113.67c0.9-1.98 2.54-3.62 4.52-5.6 5.96-6 15.56-6.29 21.91-0.67a16.02 16.02 0 0 1 4.33 6.23c5.85 9.19 40.95 54.74 87.61 113.71h167.91c55.87 0 101.32 45.45 101.32 101.32v253.46c0 55.87-45.45 101.32-101.32 101.32z m-565.24-424.1c-38.22 0-69.32 31.1-69.32 69.32v253.46c0 38.22 31.1 69.32 69.32 69.32h565.24c38.22 0 69.32-31.1 69.32-69.32V544.87c0-38.22-31.1-69.32-69.32-69.32H618.96c-4.9 0-9.5-2.23-12.54-6.06-43.35-54.72-68.91-86.99-83.11-106.82L439.93 469.4a16.013 16.013 0 0 1-12.6 6.14H229.38z" fill="#d81e06" p-id="2611"></path></svg>