<?xml version="1.0" standalone="no"?><!DOCTYPE svg PUBLIC "-//W3C//DTD SVG 1.1//EN" "http://www.w3.org/Graphics/SVG/1.1/DTD/svg11.dtd"><svg t="1670556736348" class="icon" viewBox="0 0 1024 1024" version="1.1" xmlns="http://www.w3.org/2000/svg" p-id="1358" xmlns:xlink="http://www.w3.org/1999/xlink" width="200" height="200"><path d="M639.8 958H389.34c-28.72 0-52.2-23.5-52.2-52.2V128.2c0-28.72 23.5-52.2 52.2-52.2H639.8c28.72 0 52.2 23.5 52.2 52.2v777.6c0 28.7-23.5 52.2-52.2 52.2z" fill="#3A2B2B" p-id="1359"></path><path d="M514.56 698.18m-101.7 0a101.7 101.7 0 1 0 203.4 0 101.7 101.7 0 1 0-203.4 0Z" fill="#E95456" p-id="1360"></path><path d="M886.84 755.26H510.4v-114.14h376.44c31.52 0 57.08 25.56 57.08 57.08 0 31.5-25.56 57.06-57.08 57.06z" fill="#35B387" p-id="1361"></path><path d="M514.12 698.18m-57.08 0a57.08 57.08 0 1 0 114.16 0 57.08 57.08 0 1 0-114.16 0Z" fill="#35B387" p-id="1362"></path><path d="M585.4 469.24h-141.66c-16.98 0-30.86-13.88-30.86-30.86v-222.6c0-16.98 13.88-30.86 30.86-30.86h141.66c16.98 0 30.86 13.88 30.86 30.86v222.58c0 17-13.88 30.88-30.86 30.88z" fill="#E95456" p-id="1363"></path></svg>